<svg xmlns="http://www.w3.org/2000/svg" xmlns:xlink="http://www.w3.org/1999/xlink" version="1.1" width="256" height="256" viewBox="0 0 256 256" xml:space="preserve">

<defs>
</defs>
<g style="stroke: none; stroke-width: 0; stroke-dasharray: none; stroke-linecap: butt; stroke-linejoin: miter; stroke-miterlimit: 10; fill: none; fill-rule: nonzero; opacity: 1;" transform="translate(1.4065934065934016 1.4065934065934016) scale(2.81 2.81)" >
	<path d="M 76.518 53.294 H 72.19 v -5.105 c 0 -0.553 -0.447 -1 -1 -1 h -8.692 c -0.553 0 -1 0.447 -1 1 v 5.105 h -7.72 v -5.105 c 0 -0.553 -0.447 -1 -1 -1 h -8.692 c -0.552 0 -1 0.447 -1 1 v 5.105 h -3.246 V 36.526 c 0 -0.552 -0.448 -1 -1 -1 h -4.328 V 30.42 c 0 -0.552 -0.448 -1 -1 -1 h -8.692 c -0.552 0 -1 0.448 -1 1 v 5.106 h -7.719 V 30.42 c 0 -0.552 -0.448 -1 -1 -1 H 6.41 c -0.552 0 -1 0.448 -1 1 v 5.106 H 1.082 c -0.552 0 -1 0.448 -1 1 v 17.373 C 0.03 54.021 0 54.154 0 54.294 v 17.768 c 0 0.553 0.448 1 1 1 h 37.759 h 37.759 c 0.553 0 1 -0.447 1 -1 V 54.294 C 77.518 53.741 77.07 53.294 76.518 53.294 z M 63.498 49.188 h 6.692 v 4.105 h -6.692 V 49.188 z M 45.086 49.188 h 6.692 v 4.105 h -6.692 V 49.188 z M 25.821 31.42 h 6.692 v 4.106 h -6.692 V 31.42 z M 7.41 31.42 h 6.692 v 4.106 H 7.41 V 31.42 z M 2.082 37.526 H 6.41 h 8.692 h 9.719 h 8.692 h 4.328 v 15.768 H 2.082 V 37.526 z M 2 55.294 h 35.759 v 15.768 H 2 V 55.294 z M 75.518 71.062 H 39.759 V 55.294 h 4.328 h 8.692 h 9.72 h 8.692 h 4.327 V 71.062 z" style="stroke: none; stroke-width: 1; stroke-dasharray: none; stroke-linecap: butt; stroke-linejoin: miter; stroke-miterlimit: 10; fill: rgb(0,0,0); fill-rule: nonzero; opacity: 1;" transform=" matrix(1 0 0 1 0 0) " stroke-linecap="round" />
	<path d="M 89 23.044 h -4.328 v -5.106 c 0 -0.552 -0.447 -1 -1 -1 H 74.98 c -0.553 0 -1 0.448 -1 1 v 5.106 h -7.72 v -5.106 c 0 -0.552 -0.447 -1 -1 -1 h -8.692 c -0.553 0 -1 0.448 -1 1 v 5.106 h -4.327 c -0.553 0 -1 0.448 -1 1 v 17.768 c 0 0.552 0.447 1 1 1 H 89 c 0.553 0 1 -0.448 1 -1 V 24.044 C 90 23.492 89.553 23.044 89 23.044 z M 75.98 18.938 h 6.691 v 4.106 H 75.98 V 18.938 z M 57.568 18.938 h 6.692 v 4.106 h -6.692 V 18.938 z M 88 40.812 H 52.241 V 25.044 h 4.327 h 8.692 h 9.72 h 8.691 H 88 V 40.812 z" style="stroke: none; stroke-width: 1; stroke-dasharray: none; stroke-linecap: butt; stroke-linejoin: miter; stroke-miterlimit: 10; fill: rgb(0,0,0); fill-rule: nonzero; opacity: 1;" transform=" matrix(1 0 0 1 0 0) " stroke-linecap="round" />
</g>
</svg>