<svg xmlns="http://www.w3.org/2000/svg" xmlns:xlink="http://www.w3.org/1999/xlink" version="1.1" width="256" height="256" viewBox="0 0 256 256" xml:space="preserve">

<defs>
</defs>
<g style="stroke: none; stroke-width: 0; stroke-dasharray: none; stroke-linecap: butt; stroke-linejoin: miter; stroke-miterlimit: 10; fill: none; fill-rule: nonzero; opacity: 1;" transform="translate(1.4065934065934016 1.4065934065934016) scale(2.81 2.81)" >
	<path d="M 57.906 83.857 c -0.44 0 -0.883 -0.025 -1.327 -0.076 c -3.009 -0.347 -5.695 -1.837 -7.565 -4.195 L 18.398 40.992 c -3.875 -4.885 -3.053 -12.012 1.832 -15.887 L 41.058 8.583 c 2.358 -1.87 5.313 -2.711 8.321 -2.362 c 3.009 0.347 5.695 1.836 7.565 4.195 L 87.56 49.009 c 1.871 2.359 2.71 5.314 2.363 8.321 c -0.347 3.009 -1.837 5.695 -4.195 7.565 L 64.901 81.417 C 62.89 83.012 60.447 83.857 57.906 83.857 z M 42.902 10.907 L 22.074 27.429 c -1.737 1.378 -2.834 3.36 -3.091 5.581 c -0.256 2.221 0.362 4.401 1.74 6.138 l 30.614 38.593 c 1.378 1.737 3.36 2.836 5.581 3.092 c 2.218 0.252 4.401 -0.362 6.139 -1.739 l 20.827 -16.522 c 1.738 -1.378 2.836 -3.36 3.092 -5.581 c 0.256 -2.22 -0.362 -4.4 -1.739 -6.137 L 54.621 12.258 c -1.378 -1.737 -3.36 -2.835 -5.581 -3.091 C 46.817 8.912 44.638 9.529 42.902 10.907 L 42.902 10.907 z M 47.075 45.979 c -1.395 0 -2.778 -0.612 -3.71 -1.788 l -9.96 -12.556 c -1.62 -2.043 -1.276 -5.023 0.766 -6.644 l 3.604 -2.859 c 0.989 -0.785 2.229 -1.138 3.48 -0.993 c 1.255 0.145 2.378 0.77 3.164 1.759 l 9.96 12.556 c 1.62 2.043 1.276 5.023 -0.766 6.644 l -3.604 2.859 C 49.142 45.646 48.105 45.979 47.075 45.979 z M 40.71 24.075 c -0.396 0 -0.777 0.132 -1.091 0.382 l -3.604 2.859 c -0.761 0.604 -0.889 1.714 -0.285 2.475 l 9.96 12.555 c 0.604 0.762 1.714 0.891 2.476 0.286 l 3.603 -2.859 c 0.761 -0.604 0.89 -1.714 0.286 -2.475 l -9.96 -12.556 c -0.293 -0.369 -0.711 -0.602 -1.179 -0.655 C 40.847 24.079 40.779 24.075 40.71 24.075 z" style="stroke: none; stroke-width: 1; stroke-dasharray: none; stroke-linecap: butt; stroke-linejoin: miter; stroke-miterlimit: 10; fill: rgb(0,0,0); fill-rule: nonzero; opacity: 1;" transform=" matrix(1 0 0 1 0 0) " stroke-linecap="round" />
	<path d="M 31.554 19.5 c -0.449 0 -0.892 -0.203 -1.184 -0.589 c -3.305 -4.369 -6.86 -6.74 -10.865 -7.248 c -4.894 -0.625 -10.645 1.661 -17.099 6.781 c -0.643 0.509 -1.575 0.402 -2.084 -0.24 c -0.509 -0.642 -0.401 -1.575 0.24 -2.084 c 7.204 -5.715 13.518 -8.142 19.317 -7.4 c 4.772 0.606 9.098 3.433 12.858 8.402 c 0.494 0.653 0.365 1.583 -0.288 2.078 C 32.18 19.402 31.866 19.5 31.554 19.5 z" style="stroke: none; stroke-width: 1; stroke-dasharray: none; stroke-linecap: butt; stroke-linejoin: miter; stroke-miterlimit: 10; fill: rgb(0,0,0); fill-rule: nonzero; opacity: 1;" transform=" matrix(1 0 0 1 0 0) " stroke-linecap="round" />
</g>
</svg>