<svg xmlns="http://www.w3.org/2000/svg" xmlns:xlink="http://www.w3.org/1999/xlink" version="1.1" width="256" height="256" viewBox="0 0 256 256" xml:space="preserve">

<defs>
</defs>
<g style="stroke: none; stroke-width: 0; stroke-dasharray: none; stroke-linecap: butt; stroke-linejoin: miter; stroke-miterlimit: 10; fill: none; fill-rule: nonzero; opacity: 1;" transform="translate(1.4065934065934016 1.4065934065934016) scale(2.81 2.81)" >
	<path d="M 38.6 45.112 c -0.091 0 -0.184 -0.013 -0.275 -0.039 c -7.615 -2.178 -13.716 -7.947 -16.321 -15.434 c -0.182 -0.521 0.094 -1.092 0.616 -1.273 c 0.523 -0.184 1.091 0.094 1.273 0.616 c 2.391 6.873 7.992 12.169 14.982 14.168 c 0.531 0.152 0.838 0.706 0.687 1.236 C 39.435 44.825 39.035 45.112 38.6 45.112 z" style="stroke: none; stroke-width: 1; stroke-dasharray: none; stroke-linecap: butt; stroke-linejoin: miter; stroke-miterlimit: 10; fill: rgb(0,0,0); fill-rule: nonzero; opacity: 1;" transform=" matrix(1 0 0 1 0 0) " stroke-linecap="round" />
	<path d="M 86.528 27.542 h -9.951 c 0.231 -1.391 0.37 -2.813 0.414 -4.258 h 0.481 c 2.728 0 4.946 -2.219 4.946 -4.946 V 17.44 c 0 -2.728 -2.219 -4.947 -4.946 -4.947 H 12.61 c -2.728 0 -4.946 2.219 -4.946 4.947 v 0.897 c 0 2.728 2.219 4.946 4.946 4.946 h 0.481 c 0.045 1.445 0.183 2.867 0.414 4.258 H 3.472 C 1.558 27.542 0 29.099 0 31.013 s 1.558 3.472 3.472 3.472 h 12.02 c 2.457 5.928 6.646 10.961 11.935 14.466 L 14.173 67.878 c -1.935 2.764 -1.261 6.587 1.503 8.522 c 1.066 0.746 2.289 1.104 3.5 1.104 c 1.931 -0.001 3.833 -0.91 5.021 -2.608 l 5.879 -8.396 h 29.93 l 5.879 8.396 c 0.938 1.339 2.34 2.233 3.95 2.517 c 0.358 0.063 0.718 0.095 1.075 0.095 c 1.244 0 2.456 -0.38 3.497 -1.107 c 2.763 -1.937 3.437 -5.76 1.502 -8.522 L 62.657 48.951 c 5.289 -3.505 9.478 -8.538 11.935 -14.466 h 11.936 c 1.914 0 3.472 -1.558 3.472 -3.472 S 88.442 27.542 86.528 27.542 z M 9.664 18.337 V 17.44 c 0 -1.625 1.322 -2.947 2.946 -2.947 h 64.863 c 1.625 0 2.946 1.322 2.946 2.947 v 0.897 c 0 1.625 -1.321 2.946 -2.946 2.946 h -1.456 H 14.066 H 12.61 C 10.986 21.283 9.664 19.961 9.664 18.337 z M 3.472 32.485 C 2.66 32.485 2 31.825 2 31.013 s 0.66 -1.472 1.472 -1.472 h 10.436 c 0.233 1 0.513 1.982 0.837 2.943 H 3.472 z M 22.56 73.75 c -1.302 1.861 -3.875 2.314 -5.736 1.012 c -1.86 -1.303 -2.314 -3.877 -1.011 -5.737 l 13.32 -19.023 c 2.422 1.396 5.04 2.489 7.806 3.214 L 22.56 73.75 z M 51.034 53.688 l 4.058 5.795 H 34.991 l 4.058 -5.795 c 1.943 0.37 3.944 0.571 5.993 0.571 C 47.09 54.259 49.092 54.057 51.034 53.688 z M 31.477 64.501 l 2.114 -3.019 h 22.902 l 2.114 3.019 H 31.477 z M 74.271 69.024 c 1.303 1.86 0.849 4.435 -1.011 5.737 c -0.9 0.631 -1.991 0.871 -3.078 0.683 c -1.083 -0.191 -2.027 -0.793 -2.658 -1.694 L 53.145 53.216 c 2.767 -0.725 5.384 -1.818 7.806 -3.214 L 74.271 69.024 z M 45.042 52.259 c -16.194 0 -29.429 -12.909 -29.959 -28.976 h 59.918 C 74.472 39.35 61.235 52.259 45.042 52.259 z M 86.528 32.485 H 75.339 c 0.325 -0.962 0.604 -1.943 0.837 -2.943 h 10.352 c 0.812 0 1.472 0.66 1.472 1.472 S 87.34 32.485 86.528 32.485 z" style="stroke: none; stroke-width: 1; stroke-dasharray: none; stroke-linecap: butt; stroke-linejoin: miter; stroke-miterlimit: 10; fill: rgb(0,0,0); fill-rule: nonzero; opacity: 1;" transform=" matrix(1 0 0 1 0 0) " stroke-linecap="round" />
</g>
</svg>