<svg xmlns="http://www.w3.org/2000/svg" xmlns:xlink="http://www.w3.org/1999/xlink" version="1.1" width="256" height="256" viewBox="0 0 256 256" xml:space="preserve">

<defs>
</defs>
<g style="stroke: none; stroke-width: 0; stroke-dasharray: none; stroke-linecap: butt; stroke-linejoin: miter; stroke-miterlimit: 10; fill: none; fill-rule: nonzero; opacity: 1;" transform="translate(1.4065934065934016 1.4065934065934016) scale(2.81 2.81)" >
	<path d="M 70.461 83.928 H 19.439 c -0.552 0 -1 -0.447 -1 -1 V 30.727 l -8.144 3.617 c -0.464 0.203 -1.009 0.031 -1.267 -0.405 l -8.89 -15.049 c -0.278 -0.47 -0.127 -1.076 0.338 -1.361 L 18.917 6.22 c 0.158 -0.096 0.338 -0.147 0.523 -0.147 h 10.583 c 0.355 0 0.683 0.188 0.862 0.494 c 3.47 5.914 8.217 10.728 14.115 14.318 c 5.899 -3.591 10.646 -8.405 14.115 -14.317 c 0.18 -0.306 0.508 -0.494 0.862 -0.494 h 10.483 c 0.184 0 0.364 0.051 0.521 0.146 l 18.539 11.308 c 0.467 0.285 0.618 0.891 0.341 1.362 l -8.89 15.049 c -0.258 0.437 -0.801 0.612 -1.268 0.405 l -8.243 -3.667 v 52.251 C 71.461 83.48 71.014 83.928 70.461 83.928 z M 20.439 81.928 h 49.021 V 29.137 c 0 -0.338 0.171 -0.654 0.455 -0.838 c 0.284 -0.185 0.643 -0.214 0.951 -0.075 l 8.835 3.93 l 7.936 -13.433 L 70.18 8.072 h -9.634 c -3.717 6.15 -8.773 11.141 -15.038 14.839 c -0.313 0.185 -0.703 0.185 -1.017 0 c -6.263 -3.697 -11.32 -8.688 -15.038 -14.839 h -9.732 L 2.361 18.719 l 7.937 13.436 l 8.736 -3.88 c 0.308 -0.137 0.667 -0.108 0.951 0.076 c 0.284 0.185 0.455 0.5 0.455 0.838 V 81.928 z" style="stroke: none; stroke-width: 1; stroke-dasharray: none; stroke-linecap: butt; stroke-linejoin: miter; stroke-miterlimit: 10; fill: rgb(0,0,0); fill-rule: nonzero; opacity: 1;" transform=" matrix(1 0 0 1 0 0) " stroke-linecap="round" />
</g>
</svg>