<svg xmlns="http://www.w3.org/2000/svg" xmlns:xlink="http://www.w3.org/1999/xlink" version="1.1" width="256" height="256" viewBox="0 0 256 256" xml:space="preserve">

<defs>
</defs>
<g style="stroke: none; stroke-width: 0; stroke-dasharray: none; stroke-linecap: butt; stroke-linejoin: miter; stroke-miterlimit: 10; fill: none; fill-rule: nonzero; opacity: 1;" transform="translate(1.4065934065934016 1.4065934065934016) scale(2.81 2.81)" >
	<circle cx="15.878" cy="29.718" r="1.528" style="stroke: none; stroke-width: 1; stroke-dasharray: none; stroke-linecap: butt; stroke-linejoin: miter; stroke-miterlimit: 10; fill: rgb(0,0,0); fill-rule: nonzero; opacity: 1;" transform="  matrix(1 0 0 1 0 0) "/>
	<circle cx="44.998" cy="29.718" r="1.528" style="stroke: none; stroke-width: 1; stroke-dasharray: none; stroke-linecap: butt; stroke-linejoin: miter; stroke-miterlimit: 10; fill: rgb(0,0,0); fill-rule: nonzero; opacity: 1;" transform="  matrix(1 0 0 1 0 0) "/>
	<circle cx="74.00800000000001" cy="29.718" r="1.528" style="stroke: none; stroke-width: 1; stroke-dasharray: none; stroke-linecap: butt; stroke-linejoin: miter; stroke-miterlimit: 10; fill: rgb(0,0,0); fill-rule: nonzero; opacity: 1;" transform="  matrix(1 0 0 1 0 0) "/>
	<path d="M 90 36.855 V 23.062 h -6.459 v -5.12 l -9.53 -9.919 l -9.529 9.919 v 5.12 h -9.953 v -5.12 L 45 8.023 l -9.529 9.919 v 5.12 h -9.952 v -5.12 l -9.529 -9.919 L 6.46 17.942 v 5.12 H 0 v 13.793 h 6.46 v 15.218 H 0 v 13.793 h 6.46 v 15.446 h 19.058 V 65.866 h 9.952 v 15.446 h 19.058 V 65.866 h 9.953 v 15.446 h 19.059 V 65.866 H 90 V 52.073 h -6.459 V 36.855 H 90 z M 87.033 26.029 v 7.858 h -3.492 v -7.858 H 87.033 z M 64.482 26.029 v 7.858 h -9.953 v -7.858 H 64.482 z M 64.482 36.855 v 15.218 h -9.953 V 36.855 H 64.482 z M 35.471 26.029 v 7.858 h -9.952 v -7.858 H 35.471 z M 35.471 36.855 v 15.218 h -9.952 V 36.855 H 35.471 z M 2.967 33.888 v -7.858 H 6.46 v 7.858 H 2.967 z M 2.967 62.899 V 55.04 H 6.46 v 7.859 H 2.967 z M 22.551 78.345 H 9.427 V 19.137 l 6.562 -6.831 l 6.562 6.831 V 78.345 z M 25.518 62.899 V 55.04 h 9.952 v 7.859 H 25.518 z M 51.562 78.345 H 38.438 V 19.137 L 45 12.306 l 6.562 6.831 V 78.345 z M 54.529 62.899 V 55.04 h 9.953 v 7.859 H 54.529 z M 80.573 78.345 H 67.449 V 19.137 l 6.562 -6.831 l 6.563 6.831 V 78.345 z M 87.033 55.04 v 7.859 h -3.492 V 55.04 H 87.033 z" style="stroke: none; stroke-width: 1; stroke-dasharray: none; stroke-linecap: butt; stroke-linejoin: miter; stroke-miterlimit: 10; fill: rgb(0,0,0); fill-rule: nonzero; opacity: 1;" transform=" matrix(1 0 0 1 0 0) " stroke-linecap="round" />
	<circle cx="15.878" cy="58.728" r="1.528" style="stroke: none; stroke-width: 1; stroke-dasharray: none; stroke-linecap: butt; stroke-linejoin: miter; stroke-miterlimit: 10; fill: rgb(0,0,0); fill-rule: nonzero; opacity: 1;" transform="  matrix(1 0 0 1 0 0) "/>
	<circle cx="44.998" cy="58.728" r="1.528" style="stroke: none; stroke-width: 1; stroke-dasharray: none; stroke-linecap: butt; stroke-linejoin: miter; stroke-miterlimit: 10; fill: rgb(0,0,0); fill-rule: nonzero; opacity: 1;" transform="  matrix(1 0 0 1 0 0) "/>
	<circle cx="74.00800000000001" cy="58.728" r="1.528" style="stroke: none; stroke-width: 1; stroke-dasharray: none; stroke-linecap: butt; stroke-linejoin: miter; stroke-miterlimit: 10; fill: rgb(0,0,0); fill-rule: nonzero; opacity: 1;" transform="  matrix(1 0 0 1 0 0) "/>
</g>
</svg>