<svg xmlns="http://www.w3.org/2000/svg" xmlns:xlink="http://www.w3.org/1999/xlink" version="1.1" width="256" height="256" viewBox="0 0 256 256" xml:space="preserve">

<defs>
</defs>
<g style="stroke: none; stroke-width: 0; stroke-dasharray: none; stroke-linecap: butt; stroke-linejoin: miter; stroke-miterlimit: 10; fill: none; fill-rule: nonzero; opacity: 1;" transform="translate(1.4065934065934016 1.4065934065934016) scale(2.81 2.81)" >
	<path d="M 45 87.464 L 45 87.464 c -2.123 0 -4.014 -1.34 -4.717 -3.343 c -2.467 -7.022 -8.804 -11.159 -16.14 -15.948 C 13.386 61.15 0 52.411 0 31.395 C 0 15.482 12.754 2.537 28.432 2.537 c 6.03 0 11.771 1.892 16.568 5.397 c 4.797 -3.506 10.538 -5.397 16.568 -5.397 C 77.246 2.537 90 15.482 90 31.395 c 0 21.017 -13.387 29.756 -24.143 36.778 c -7.337 4.789 -13.673 8.926 -16.141 15.948 C 49.014 86.124 47.122 87.464 45 87.464 z M 28.432 12.537 C 18.269 12.537 10 20.996 10 31.395 c 0 15.603 9.087 21.535 19.609 28.404 c 5.539 3.616 11.207 7.317 15.391 12.55 c 4.184 -5.232 9.852 -8.934 15.391 -12.55 C 70.913 52.93 80 46.997 80 31.395 c 0 -10.398 -8.269 -18.858 -18.432 -18.858 c -4.906 0 -9.523 1.95 -13.001 5.491 c -0.94 0.958 -2.226 1.497 -3.567 1.497 s -2.627 -0.539 -3.567 -1.497 C 37.955 14.487 33.338 12.537 28.432 12.537 z" style="stroke: none; stroke-width: 1; stroke-dasharray: none; stroke-linecap: butt; stroke-linejoin: miter; stroke-miterlimit: 10; fill: rgb(0,129,142); fill-rule: nonzero; opacity: 1;" transform=" matrix(1 0 0 1 0 0) " stroke-linecap="round" />
</g>
</svg>