<svg xmlns="http://www.w3.org/2000/svg" xmlns:xlink="http://www.w3.org/1999/xlink" version="1.1" width="256" height="256" viewBox="0 0 256 256" xml:space="preserve">

<defs>
</defs>
<g style="stroke: none; stroke-width: 0; stroke-dasharray: none; stroke-linecap: butt; stroke-linejoin: miter; stroke-miterlimit: 10; fill: none; fill-rule: nonzero; opacity: 1;" transform="translate(1.4065934065934016 1.4065934065934016) scale(2.81 2.81)" >
	<circle cx="66.509" cy="44.999" r="8.289" style="stroke: none; stroke-width: 1; stroke-dasharray: none; stroke-linecap: butt; stroke-linejoin: miter; stroke-miterlimit: 10; fill: rgb(0,0,0); fill-rule: nonzero; opacity: 1;" transform="  matrix(1 0 0 1 0 0) "/>
	<circle cx="39.849" cy="19.429000000000002" r="8.289" style="stroke: none; stroke-width: 1; stroke-dasharray: none; stroke-linecap: butt; stroke-linejoin: miter; stroke-miterlimit: 10; fill: rgb(0,0,0); fill-rule: nonzero; opacity: 1;" transform="  matrix(1 0 0 1 0 0) "/>
	<circle cx="23.488999999999997" cy="70.569" r="8.289" style="stroke: none; stroke-width: 1; stroke-dasharray: none; stroke-linecap: butt; stroke-linejoin: miter; stroke-miterlimit: 10; fill: rgb(0,0,0); fill-rule: nonzero; opacity: 1;" transform="  matrix(1 0 0 1 0 0) "/>
	<path d="M 54.01 45 c 0 -1.559 0.298 -3.046 0.82 -4.422 H 4.422 C 1.98 40.578 0 42.558 0 45 s 1.98 4.422 4.422 4.422 H 54.83 C 54.308 48.045 54.01 46.559 54.01 45 z" style="stroke: none; stroke-width: 1; stroke-dasharray: none; stroke-linecap: butt; stroke-linejoin: miter; stroke-miterlimit: 10; fill: rgb(0,0,0); fill-rule: nonzero; opacity: 1;" transform=" matrix(1 0 0 1 0 0) " stroke-linecap="round" />
	<path d="M 85.578 15.01 H 51.534 c 0.522 1.376 0.82 2.863 0.82 4.422 c 0 1.559 -0.298 3.045 -0.82 4.422 h 34.044 c 2.442 0 4.422 -1.98 4.422 -4.422 C 90 16.99 88.02 15.01 85.578 15.01 z" style="stroke: none; stroke-width: 1; stroke-dasharray: none; stroke-linecap: butt; stroke-linejoin: miter; stroke-miterlimit: 10; fill: rgb(0,0,0); fill-rule: nonzero; opacity: 1;" transform=" matrix(1 0 0 1 0 0) " stroke-linecap="round" />
	<path d="M 85.578 66.146 H 35.17 c 0.522 1.376 0.82 2.863 0.82 4.422 c 0 1.559 -0.298 3.045 -0.82 4.422 h 50.408 c 2.442 0 4.422 -1.98 4.422 -4.422 S 88.02 66.146 85.578 66.146 z" style="stroke: none; stroke-width: 1; stroke-dasharray: none; stroke-linecap: butt; stroke-linejoin: miter; stroke-miterlimit: 10; fill: rgb(0,0,0); fill-rule: nonzero; opacity: 1;" transform=" matrix(1 0 0 1 0 0) " stroke-linecap="round" />
	<path d="M 27.354 19.432 c 0 -1.559 0.298 -3.046 0.82 -4.422 H 4.422 C 1.98 15.01 0 16.99 0 19.432 c 0 2.442 1.98 4.422 4.422 4.422 h 23.752 C 27.652 22.477 27.354 20.991 27.354 19.432 z" style="stroke: none; stroke-width: 1; stroke-dasharray: none; stroke-linecap: butt; stroke-linejoin: miter; stroke-miterlimit: 10; fill: rgb(0,0,0); fill-rule: nonzero; opacity: 1;" transform=" matrix(1 0 0 1 0 0) " stroke-linecap="round" />
	<path d="M 85.578 40.578 H 78.19 c 0.522 1.376 0.82 2.863 0.82 4.422 c 0 1.559 -0.298 3.045 -0.82 4.422 h 7.388 C 88.02 49.422 90 47.442 90 45 S 88.02 40.578 85.578 40.578 z" style="stroke: none; stroke-width: 1; stroke-dasharray: none; stroke-linecap: butt; stroke-linejoin: miter; stroke-miterlimit: 10; fill: rgb(0,0,0); fill-rule: nonzero; opacity: 1;" transform=" matrix(1 0 0 1 0 0) " stroke-linecap="round" />
	<path d="M 10.99 70.568 c 0 -1.559 0.298 -3.046 0.82 -4.422 H 4.422 C 1.98 66.146 0 68.126 0 70.568 s 1.98 4.422 4.422 4.422 h 7.388 C 11.289 73.614 10.99 72.127 10.99 70.568 z" style="stroke: none; stroke-width: 1; stroke-dasharray: none; stroke-linecap: butt; stroke-linejoin: miter; stroke-miterlimit: 10; fill: rgb(0,0,0); fill-rule: nonzero; opacity: 1;" transform=" matrix(1 0 0 1 0 0) " stroke-linecap="round" />
</g>
</svg>